inDegrees=no
num_controls=7
num_derivatives=13
num_iterations=120
num_multipliers=7
num_parameters=0
num_slacks=7
num_states=26
objective=0.497220
objective_accelerations=0.032247
objective_balance=0.003250
objective_effort=0.034955
objective_height=0.421289
objective_ligament=0.005479
solver_duration=1419.283877
status=Solve_Succeeded
success=true
DataType=double
version=3
OpenSimVersion=4.5
endheader
time	/jointset/ground_pelvis/pelvis_tilt/value	/jointset/ground_pelvis/pelvis_tx/value	/jointset/ground_pelvis/pelvis_ty/value	/jointset/hip_r/hip_flexion_r/value	/jointset/hip_r/hip_adduction_r/value	/jointset/hip_r/hip_rotation_r/value	/jointset/back/lumbar_extension/value	/jointset/patellofemoral_r/patellar_flexion_r/value	/jointset/knee_r/knee_flexion_r/value	/jointset/knee_r/knee_adduction_r/value	/jointset/knee_r/knee_rotation_r/value	/jointset/ankle_r/ankle_angle_r/value	/jointset/subtalar_r/subtalar_angle_r/value	/jointset/ground_pelvis/pelvis_tilt/speed	/jointset/ground_pelvis/pelvis_tx/speed	/jointset/ground_pelvis/pelvis_ty/speed	/jointset/hip_r/hip_flexion_r/speed	/jointset/hip_r/hip_adduction_r/speed	/jointset/hip_r/hip_rotation_r/speed	/jointset/back/lumbar_extension/speed	/jointset/patellofemoral_r/patellar_flexion_r/speed	/jointset/knee_r/knee_flexion_r/speed	/jointset/knee_r/knee_adduction_r/speed	/jointset/knee_r/knee_rotation_r/speed	/jointset/ankle_r/ankle_angle_r/speed	/jointset/subtalar_r/subtalar_angle_r/speed	/forceset/tau_hip_flexion_r	/forceset/tau_hip_adduction_r	/forceset/tau_hip_rotation_r	/forceset/tau_knee_flexion_r	/forceset/tau_ankle_angle_r	/forceset/tau_subtalar_angle_r	/forceset/tau_lumbar_extension	lambda_cid13_p0	lambda_cid14_p0	lambda_cid14_p1	lambda_cid14_p2	lambda_cid14_p3	lambda_cid14_p4	lambda_cid14_p5	/jointset/ground_pelvis/pelvis_tilt/accel	/jointset/ground_pelvis/pelvis_tx/accel	/jointset/ground_pelvis/pelvis_ty/accel	/jointset/hip_r/hip_flexion_r/accel	/jointset/hip_r/hip_adduction_r/accel	/jointset/hip_r/hip_rotation_r/accel	/jointset/back/lumbar_extension/accel	/jointset/patellofemoral_r/patellar_flexion_r/accel	/jointset/knee_r/knee_flexion_r/accel	/jointset/knee_r/knee_adduction_r/accel	/jointset/knee_r/knee_rotation_r/accel	/jointset/ankle_r/ankle_angle_r/accel	/jointset/subtalar_r/subtalar_angle_r/accel	gamma_cid13_p0	gamma_cid14_p0	gamma_cid14_p1	gamma_cid14_p2	gamma_cid14_p3	gamma_cid14_p4	gamma_cid14_p5
0.5	-0.09739499698510135	0.05238642598499456	0.8638781119184108	0.6908664235911302	-0.2301429651037757	-0.133438431403467	-0.3171927442647969	0.6864458608475169	0.6864458608475468	0.04167395700716645	0.1744764855910527	0.2638449251356056	0.05668427090639391	-0.2619361429939149	-0.08776475766956281	-0.3242638861560554	1.397308196281677	-0.007863950222671685	0.2546404359710159	-0.5989915975297695	1.657163836551113	1.657163836551139	-0.2785354093936542	-0.0002242101702812247	0.6110562564166395	0.1641086249466797	-0.07456416959368423	-0.01868317856798301	0.008239623978981791	-0.339280118462552	0.06180584056907262	-0.01006099445566509	0.1347559107036516	-32.10027125146608	-22.37425277044721	-4.339710467914029	-3.356985193892666	3.671561804521237	-670.9629143661844	60.04057995114059	0.05469186928579304	0.2717684939337193	-0.3408242945285622	-0.8495781188334826	-0.05310853049670096	-0.5511918087359802	1.296270167791788	-1.143023217363814	-1.143023217363811	0.3889691078251203	-0.001473400508826889	-0.4784982416385428	-0.06630059211004456	-1.081512330965312e-07	-1.546122252918133e-07	5.235490560965857e-07	-1.225525796607727e-06	3.883369005848417e-08	-2.057660443006397e-07	8.390602914559337e-07
0.51	-0.1000112019360752	0.05152247484272171	0.8606191468793938	0.704794856285319	-0.2302250047262191	-0.1309184836279816	-0.3231171621377691	0.7029578655487674	0.7029578655487806	0.03891040884930044	0.174474106438944	0.269930431000154	0.05832067077779474	-0.261269787447782	-0.08501649428694666	-0.327456084917189	1.388187590507869	-0.008546962334489722	0.2493594893393373	-0.5858170791683909	1.645003218739229	1.645003218739188	-0.2741381834036214	-0.000257903556779476	0.6059591397986183	0.1631380847606551	-0.07976490129289325	-0.01692818611002183	0.008892339452813019	-0.3420811475491975	0.05755579078699723	-0.009451444720518147	0.1395340461597948	-31.15858558013188	-23.87554783040092	-4.452428028514022	-3.208137662275576	4.260279475310643	-674.0922965131014	59.84601746849913	0.0778537370176479	0.2777106903014436	-0.2975038934466715	-0.9719315255607162	-0.07650931486419224	-0.5151710434208129	1.339277354745502	-1.287642986992443	-1.287642987002389	0.4705096248850737	-0.005473977673702123	-0.5381936465246248	-0.1174886663440253	-9.290608308102693e-08	-1.1822029110816e-07	5.642890982736704e-07	-9.486565753199422e-07	1.224909509302401e-08	-1.659835913812693e-07	7.401547142883679e-07
0.52	-0.1026196940636408	0.05068627742025017	0.8573304426074571	0.7186263569779868	-0.2303139968224509	-0.1284510703094185	-0.3289075878902409	0.7193412516871212	0.7193412516871168	0.03619191500739002	0.1744711590189795	0.2759623906435941	0.05994635366043618	-0.2603935783120239	-0.08221401370930025	-0.3302117327399591	1.377921795977811	-0.009254444979901147	0.2441335445861784	-0.5721931734296263	1.631440123971678	1.631440123971571	-0.2695245462018803	-0.0003378637414128934	0.600347012194969	0.1619652271948167	-0.08496563299210855	-0.01517319365205712	0.009545054926628617	-0.3448821766358439	0.0533057410049237	-0.008841894985363953	0.1443121816159313	-30.20819067542607	-25.38150042405675	-4.563247775188128	-3.062692658966862	4.836295693338358	-677.300222193256	59.71512631495865	0.09666258721081111	0.2826119329397716	-0.2535141068559011	-1.078615870083597	-0.05800263721538196	-0.5401914330320458	1.386147643268995	-1.423518608497057	-1.423518608497053	0.4322513501667543	-0.01072676013584958	-0.5815004387641188	-0.1067640680727951	-7.028919322908817e-08	-4.463122007028676e-08	7.388291441847028e-07	-4.059486611488175e-07	-5.346817816488017e-08	-7.971877394018489e-08	6.091525518443581e-07
0.53	-0.1052184393764676	0.04987834494427573	0.854016390385825	0.7323497093964616	-0.2304097815886924	-0.1260372244013733	-0.3345595354116386	0.735582191458099	0.735582191458089	0.03351889635661982	0.174468042377257	0.2819358587020868	0.06155990316251757	-0.2593171836806941	-0.07936536776597714	-0.3325218997826057	1.36655727167921	-0.009910013451237218	0.2386674147374247	-0.5581316383273736	1.616521957398401	1.616521957398374	-0.265024605740052	-0.0003020124880401851	0.594264842494945	0.1607045729112894	-0.09008595691149117	-0.01348415819048646	0.01021926027338234	-0.347781191957846	0.04917557700189239	-0.008353807349107205	0.1490200875840115	-29.25203681893251	-26.86008724132352	-4.731118695950678	-2.89776701519687	5.415857883683373	-680.5672122367341	59.51662525565568	0.1188715870646718	0.2870403857030224	-0.2082531139867613	-1.194084027844865	-0.07041201820835147	-0.5451266001802527	1.425860322075315	-1.559834923638178	-1.559834923626098	0.4671631820940438	0.008250865976230278	-0.6338602727900098	-0.1416148802366376	-4.565006022461448e-08	3.58756679777817e-08	9.432185744087082e-07	1.858640441292105e-07	-1.270752693174306e-07	1.120290133170561e-08	4.948341210236753e-07
